<?xml version="1.0" encoding="UTF-8"?>
<svg width="512px" height="512px" viewBox="0 0 512 512" version="1.1" xmlns="http://www.w3.org/2000/svg">
    <title>Hueso de Perro</title>
    <g stroke="none" stroke-width="1" fill="none" fill-rule="evenodd">
        <g fill="#DD6E42" fill-opacity="0.8">
            <path d="M155.2,100.5 C147.5,107.9 142.9,118.1 142.9,129.3 C142.9,140.5 147.5,150.7 155.2,158.1 C141.5,165.7 132.4,180.6 132.4,197.6 C132.4,214.6 141.5,229.5 155.2,237.1 C147.5,244.5 142.9,254.7 142.9,265.9 C142.9,288 160.8,305.9 182.9,305.9 C194.1,305.9 204.3,301.3 211.7,293.6 C219.3,307.3 234.2,316.4 251.2,316.4 C268.2,316.4 283.1,307.3 290.7,293.6 C298.1,301.3 308.3,305.9 319.5,305.9 C341.6,305.9 359.5,288 359.5,265.9 C359.5,254.7 354.9,244.5 347.2,237.1 C360.9,229.5 370,214.6 370,197.6 C370,180.6 360.9,165.7 347.2,158.1 C354.9,150.7 359.5,140.5 359.5,129.3 C359.5,107.2 341.6,89.3 319.5,89.3 C308.3,89.3 298.1,93.9 290.7,101.6 C283.1,87.9 268.2,78.8 251.2,78.8 C234.2,78.8 219.3,87.9 211.7,101.6 C204.3,93.9 194.1,89.3 182.9,89.3 C160.8,89.3 142.9,107.2 142.9,129.3 C142.9,129.3 142.9,100.6 155.2,100.5 Z" fill-rule="nonzero"></path>
        </g>
    </g>
</svg>
