<?xml version="1.0" encoding="UTF-8"?>
<svg width="512px" height="512px" viewBox="0 0 512 512" version="1.1" xmlns="http://www.w3.org/2000/svg">
    <title>Huella de Perro</title>
    <g stroke="none" stroke-width="1" fill="none" fill-rule="evenodd">
        <g fill="#4F6D7A" fill-opacity="0.8">
            <path d="M311.15,269.09 C323.96,239.1 310.58,202.22 280.59,189.41 C250.6,176.6 213.72,189.98 200.91,219.97 C188.1,249.96 201.48,286.84 231.47,299.65 C261.46,312.46 298.34,299.08 311.15,269.09 Z" fill-rule="nonzero"></path>
            <path d="M184.35,202.66 C175.58,187.22 151.87,183.91 129.89,195.17 C107.91,206.43 96.76,228.08 105.54,243.52 C114.31,258.96 138.02,262.27 160,250.99 C181.98,239.73 193.13,218.1 184.35,202.66 Z" fill-rule="nonzero"></path>
            <path d="M406.43,243.51 C415.2,228.07 404.05,206.42 382.07,195.16 C360.09,183.9 336.38,187.21 327.61,202.65 C318.84,218.09 329.99,239.74 351.97,250.98 C373.95,262.24 397.66,258.93 406.43,243.51 Z" fill-rule="nonzero"></path>
            <path d="M137.03,293.42 C116.7,287.07 96.49,301.82 91.12,325.07 C85.75,348.32 96.36,371.22 116.69,377.58 C137.02,383.94 157.23,369.19 162.6,345.94 C167.97,322.69 157.36,299.79 137.03,293.42 Z" fill-rule="nonzero"></path>
            <path d="M395.27,377.58 C415.6,371.23 426.21,348.33 420.84,325.08 C415.47,301.83 395.26,287.08 374.93,293.43 C354.6,299.78 343.99,322.68 349.36,345.93 C354.73,369.18 374.94,383.93 395.27,377.58 Z" fill-rule="nonzero"></path>
        </g>
    </g>
</svg>
